<?xml version="1.0" encoding="utf-8"?>
<!-- Generator: Adobe Illustrator 22.0.1, SVG Export Plug-In . SVG Version: 6.00 Build 0)  -->
<svg version="1.1" id="Layer_1" xmlns="http://www.w3.org/2000/svg" xmlns:xlink="http://www.w3.org/1999/xlink" x="0px" y="0px"
	 viewBox="0 0 595.3 841.9" style="enable-background:new 0 0 595.3 841.9;" xml:space="preserve">
<style type="text/css">
	.st0{fill:#FFFFFF;stroke:#000000;stroke-miterlimit:10;}
	.st1{fill:#00A651;}
	.st2{font-family:'MyriadPro-Regular';}
	.st3{font-size:12px;}
	.st4{font-family:'TimesNewRomanPS-ItalicMT';}
	.st5{font-size:9px;}
	.st6{fill:#EC008C;}
</style>
<polygon class="st0" points="146.4,281.2 245.4,147.1 417.1,147.1 324,281.2 "/>
<line class="st0" x1="245.4" y1="147.1" x2="324" y2="281.2"/>
<text transform="matrix(1 0 0 1 136.707 290.7096)" class="st1 st2 st3">0</text>
<text transform="matrix(1 0 0 1 113.1078 302.278)" class="st4 st5">(0,0,0)</text>
<text transform="matrix(1 0 0 1 325.8513 302.278)" class="st4 st5">(0,2,0)</text>
<text transform="matrix(1 0 0 1 433.3293 133.0716)" class="st4 st5">(0,3,2)</text>
<text transform="matrix(1 0 0 1 228.3414 129.3698)" class="st4 st5">(0,1,2)</text>
<text transform="matrix(1 0 0 1 325.8513 290.7098)" class="st1 st2 st3">1</text>
<text transform="matrix(1 0 0 1 240.1797 144.2205)" class="st1 st2 st3">2</text>
<text transform="matrix(1 0 0 1 417.1198 144.2207)" class="st1 st2 st3">3</text>
<text transform="matrix(1 0 0 1 162.6198 274.9769)" class="st6 st4 st3">0</text>
<text transform="matrix(1 0 0 1 303.9489 274.9767)" class="st6 st4 st3">1</text>
<text transform="matrix(1 0 0 1 240.1799 162.9223)" class="st6 st4 st3">2</text>
<text transform="matrix(1 0 0 1 321.9952 271.2005)" class="st6 st4 st3">3</text>
<text transform="matrix(1 0 0 1 257.2134 158.295)" class="st6 st4 st3">5</text>
<text transform="matrix(1 0 0 1 400.6589 158.2949)" class="st6 st4 st3">4</text>
</svg>
